<svg width="156" height="24" viewBox="0 0 156 24" fill="none" xmlns="http://www.w3.org/2000/svg">
<g clip-path="url(#clip0_2_1999)">
<path fill-rule="evenodd" clip-rule="evenodd" d="M25.6525 10.6721C25.6525 8.10492 25.3082 7.17049 25.141 6.65902C24.7967 5.80328 24.0295 4.6918 22.141 4.6918C20.8623 4.6918 19.7508 5.38033 19.0623 6.31475C18.1279 7.59344 18.0393 9.56066 18.0393 11.4393V22.9672H12.8262V10.6721C12.8262 8.10492 12.482 7.17049 12.3148 6.65902C11.9705 5.80328 11.2033 4.6918 9.31475 4.6918C8.03606 4.6918 6.92459 5.38033 6.2459 6.31475C5.30164 7.59344 5.21311 9.56066 5.21311 11.4393V22.9672H0V0.6H3.59016L5.21311 2.6459C7.01311 0.511475 9.05902 0 10.7705 0C13.1705 0 15.3049 1.11148 16.6721 3.32459C18.5508 0.6 21.3738 0 23.341 0C26.0754 0 28.4754 1.27869 29.6656 3.50164C30.0984 4.26885 30.8656 5.8918 30.8656 9.1377V22.9672H25.6525V10.6721ZM52.0721 20.823C49.7607 23.5574 46.9377 23.9016 45.3148 23.9016C38.3016 23.9016 34.3672 18.0984 34.3672 11.9508C34.3672 7.17049 36.5115 3.58033 39.6688 1.70164C40.7803 1.02295 41.8918 0.590164 43.0918 0.422951C43.7705 0.255738 44.6262 0.167213 45.4033 0.167213C45.4885 0.167213 45.5738 0.167213 45.659 0.167213C45.9147 0.167213 46.1705 0.167213 46.4262 0.167213C47.6262 0.167213 48.7377 0.334426 49.8492 0.678689C51.8164 1.19016 53.2623 2.21311 54.2065 3.15738C55.918 4.85902 56.6852 6.91475 57.0295 8.79344C57.1967 9.81639 57.3738 10.8393 57.3738 11.9508V23.2131H52.0721V20.823ZM45.9934 4.85902C42.2361 4.85902 39.7574 8.01639 39.7574 12.0295C39.7574 15.9639 42.1475 19.2 45.9934 19.2C49.3279 19.2 52.4065 16.8098 52.4065 12.118C52.4065 7.17049 49.3279 4.85902 45.9934 4.85902ZM77.8918 23.2131L72.2459 16.0426L66.5213 23.2131H60.1869L69 12.0295L60.1082 0.767213H66.3443L72.1574 8.01639L77.9705 0.767213H84.2164L75.3246 12.0295L84.2164 23.2131H77.8918ZM92.5082 17.8426C93.7082 19.1213 95.2426 19.2885 96.5311 19.2885C97.9869 19.2885 99.0098 18.9443 100.121 18.177C100.977 17.4984 101.656 16.5541 102.177 15.7082L105.423 19.8C104.656 20.823 103.711 21.6787 102.767 22.2787C100.889 23.4689 98.4983 23.9803 96.0984 23.9803C93.1082 23.9803 90.6295 23.2131 88.4951 21.0787C86.3508 19.0328 85.1606 15.8754 85.1606 12.541C85.1606 9.04918 86.3508 5.71475 88.7508 3.32459C90.6295 1.4459 93.0197 0.255738 96.2754 0.255738C99.8656 0.255738 102.177 1.79016 103.544 3.15738C106.446 6.14754 106.702 10.3279 106.702 12.6295V13.2295H90.541C90.718 14.8525 91.3967 16.6426 92.5082 17.8426ZM101.4 8.96066C101.144 7.68197 100.544 6.65902 99.777 5.8918C99.0984 5.20328 97.9869 4.60328 96.2754 4.60328C94.4754 4.60328 93.2852 5.37049 92.5967 6.05902C91.8295 6.7377 91.2295 7.84918 90.9738 8.96066H101.4ZM121.229 23.9016C114.393 23.9016 109.18 18.9443 109.18 12.0295C109.18 5.03607 114.393 0.167213 121.229 0.167213C128.075 0.167213 133.288 5.11475 133.288 12.0295C133.288 18.8656 127.987 23.9016 121.229 23.9016ZM121.229 4.85902C117.984 4.85902 114.561 6.91475 114.561 12.0295C114.561 16.3869 117.128 19.2 121.229 19.2C125.341 19.2 127.898 16.3869 127.898 12.0295C127.898 6.91475 124.485 4.85902 121.229 4.85902ZM150.393 22.9574V10.4951C150.393 4.85902 148.249 4.6918 146.282 4.6918C143.892 4.6918 141.502 4.94754 141.502 12.2066V22.9574H136.279V0.590164H139.869L141.502 2.6459C143.725 0.167213 146.282 0 147.57 0C151.761 0 153.551 2.0459 154.239 2.98033C155.095 4.26885 155.607 5.80328 155.607 9.21639V22.9574H150.393Z" fill="#141F90"/>
</g>
<defs>
<clipPath id="clip0_2_1999">
<rect width="155.607" height="24" fill="white"/>
</clipPath>
</defs>
</svg>
