<svg width="24" height="24" viewBox="0 0 24 24" fill="none" xmlns="http://www.w3.org/2000/svg">
<g clip-path="url(#clip0_2_2047)">
<path d="M6.99988 20.5L16.9999 20.5L16.9999 6.5L6.99988 6.5L6.99988 20.5ZM4.99988 21.5L4.99988 5.5C4.99988 5.23478 5.10523 4.98043 5.29277 4.79289C5.48031 4.60535 5.73466 4.5 5.99988 4.5L17.9999 4.5C18.2651 4.5 18.5194 4.60535 18.707 4.79289C18.8945 4.98043 18.9999 5.23478 18.9999 5.5L18.9999 21.5C18.9999 21.7652 18.8945 22.0196 18.707 22.2071C18.5194 22.3946 18.2651 22.5 17.9999 22.5L5.99988 22.5C5.73466 22.5 5.48031 22.3946 5.29277 22.2071C5.10523 22.0196 4.99988 21.7652 4.99988 21.5ZM8.99988 3.5L8.99988 1.5L14.9999 1.5L14.9999 3.5L8.99988 3.5Z" fill="#292929"/>
<rect x="6.11548" y="13.9615" width="11.7692" height="7.84615" fill="#292929"/>
<path d="M12.8753 10.0385C12.8753 9.92408 12.7977 9.82429 12.6868 9.79614C12.576 9.76799 12.4601 9.81866 12.4056 9.91918L9.81886 14.6844C9.77681 14.7619 9.77866 14.8558 9.82373 14.9315C9.8688 15.0073 9.95043 15.0537 10.0386 15.0537H11.1247V17.8846C11.1247 17.999 11.2023 18.0987 11.3132 18.1269C11.424 18.1551 11.5398 18.1044 11.5944 18.0039L14.1813 13.242C14.2234 13.1645 14.2216 13.0706 14.1765 12.9949C14.1315 12.9191 14.0498 12.8727 13.9617 12.8727H12.8753V10.0385Z" fill="#292929" stroke="#F7F7F7" stroke-width="0.5" stroke-linejoin="round"/>
</g>
<defs>
<clipPath id="clip0_2_2047">
<rect width="24" height="24" fill="white"/>
</clipPath>
</defs>
</svg>
