<svg width="24" height="24" viewBox="0 0 24 24" fill="none" xmlns="http://www.w3.org/2000/svg">
<path d="M19.9982 11.9999H3.99817L1.99817 21.9999H21.9982L19.9982 11.9999ZM18.3582 13.9999L18.7582 15.9999H12.9982V13.9999H18.3582ZM10.9982 13.9999V15.9999H5.23817L5.63817 13.9999H10.9982ZM4.83817 17.9999H10.9982V19.9999H4.43817L4.83817 17.9999V17.9999ZM12.9982 19.9999V17.9999H19.1582L19.5582 19.9999H12.9982ZM10.9982 7.99988H12.9982V10.9999H10.9982V7.99988ZM15.7622 7.20488L17.1772 5.79088L19.2982 7.91188L17.8842 9.32588L15.7622 7.20488ZM4.70317 7.91288L6.82417 5.78988L8.23817 7.20588L6.11817 9.32688L4.70317 7.91288ZM2.99817 1.99988H5.99817V3.99988H2.99817V1.99988ZM17.9982 1.99988H20.9982V3.99988H17.9982V1.99988ZM11.9982 6.99988C14.7582 6.99988 16.9982 4.75988 16.9982 1.99988H14.9982C14.9982 3.64988 13.6482 4.99988 11.9982 4.99988C10.3482 4.99988 8.99817 3.64988 8.99817 1.99988H6.99817C6.99817 4.75988 9.23817 6.99988 11.9982 6.99988Z" fill="#292929"/>
</svg>
