<svg width="24" height="38" viewBox="0 0 24 38" fill="none" xmlns="http://www.w3.org/2000/svg">
<g clip-path="url(#clip0_2_2066)">
<path d="M8.28022 5.45024L6.50022 4.55024L7.76022 2.00024H16.2302L17.5002 4.55024L15.7202 5.44024L15.0002 4.00024H9.00022L8.28022 5.45024ZM18.6202 8.00024H14.0902L13.3002 5.00024H10.7002L9.91022 8.00024H5.38022L4.10022 10.5502L5.89022 11.4402L6.62022 10.0002H17.3802L18.1002 11.4502L19.8902 10.5602L18.6202 8.00024ZM17.7702 22.0002H15.7002L15.4602 21.1002L12.0002 15.9002L8.53022 21.1002L8.30022 22.0002H6.23022L9.12022 11.0002H11.1902L10.8302 12.3502L12.0002 14.1002L13.1602 12.3502L12.8102 11.0002H14.8802L17.7702 22.0002ZM11.4002 15.0002L10.5002 13.6502L9.32022 18.1302L11.4002 15.0002ZM14.6802 18.1202L13.5002 13.6402L12.6002 15.0002L14.6802 18.1202Z" fill="#292929"/>
</g>
<path d="M13.0285 27.828L13.0285 38H10.9715L10.9715 27.828L5.45436 33.192L4 31.778L12 24L20 31.778L18.5456 33.192L13.0285 27.828Z" fill="#292929"/>
<defs>
<clipPath id="clip0_2_2066">
<rect width="24" height="24" fill="white"/>
</clipPath>
</defs>
</svg>
