<svg width="32" height="32" viewBox="0 0 32 32" fill="none" xmlns="http://www.w3.org/2000/svg">
<path d="M23.2 13.95H24.45V16.45H23.2V13.95ZM18.4 16.45H17.15V13.95H18.4V16.45ZM19.55 12.8V11.55H22.05V12.8H19.55ZM22.05 17.6V18.85H19.55V17.6H22.05ZM12.4 15.15C13.0904 15.15 13.65 15.7096 13.65 16.4C13.65 17.0904 13.0904 17.65 12.4 17.65V15.15ZM12.388 17.65C11.6976 17.65 11.138 17.0904 11.138 16.4C11.138 15.7096 11.6976 15.15 12.388 15.15V17.65ZM8.8 12.75C9.49036 12.75 10.05 13.3096 10.05 14C10.05 14.6904 9.49036 15.25 8.8 15.25V12.75ZM8.788 15.25C8.09764 15.25 7.538 14.6904 7.538 14C7.538 13.3096 8.09764 12.75 8.788 12.75V15.25ZM9.616 8L9.61568 6.75H9.616V8ZM22.384 8L22.384 6.75L22.3843 6.75L22.384 8ZM27.1576 12.308L25.9158 12.4513C25.9153 12.4462 25.9147 12.4412 25.9142 12.4361L27.1576 12.308ZM27.178 12.4904L28.4164 12.3204C28.4173 12.3274 28.4182 12.3343 28.4191 12.3412L27.178 12.4904ZM28 21.2H29.25H28ZM24.4 24.8V26.05V24.8ZM22 23.6L22.8839 22.7161L22.8839 22.7161L22 23.6ZM20.3032 21.9032L19.4193 22.7871L19.4192 22.787L20.3032 21.9032ZM18.6064 21.2L18.6064 19.95L18.6067 19.95L18.6064 21.2ZM13.3936 21.2L13.3933 19.95H13.3936V21.2ZM11.6968 21.9032L12.5808 22.787L12.5807 22.7871L11.6968 21.9032ZM10 23.6L10.8839 24.4839L10.8839 24.4839L10 23.6ZM7.6 24.8L7.6 26.05L7.6 24.8ZM4 21.2H2.75H4ZM4.822 12.4904L3.58093 12.3412C3.5819 12.3332 3.58295 12.3251 3.58407 12.3171L4.822 12.4904ZM4.8424 12.3092L6.08585 12.437C6.08522 12.4431 6.08455 12.4492 6.08384 12.4553L4.8424 12.3092ZM23.2 16.45H18.4V13.95H23.2V16.45ZM22.05 12.8V17.6H19.55V12.8H22.05ZM12.4 17.65H12.388V15.15H12.4V17.65ZM8.8 15.25H8.788V12.75H8.8V15.25ZM9.616 6.75H22.384V9.25H9.616V6.75ZM22.3843 6.75C23.8812 6.75035 25.3249 7.30566 26.4362 8.30858L24.7613 10.1645C24.1092 9.57605 23.2621 9.2502 22.3837 9.25L22.3843 6.75ZM26.4362 8.30858C27.5475 9.3115 28.2476 10.6908 28.401 12.1799L25.9142 12.4361C25.8242 11.5624 25.4134 10.753 24.7613 10.1645L26.4362 8.30858ZM28.3994 12.1647C28.4138 12.2896 28.4092 12.2681 28.4164 12.3204L25.9396 12.6604C25.9326 12.6092 25.9276 12.563 25.9241 12.5295C25.9201 12.4907 25.9184 12.4736 25.9158 12.4513L28.3994 12.1647ZM28.4191 12.3412C28.51 13.098 29.25 19.2506 29.25 21.2H26.75C26.75 19.4438 26.0404 13.5004 25.9369 12.6395L28.4191 12.3412ZM29.25 21.2C29.25 22.4863 28.739 23.7199 27.8295 24.6295L26.0617 22.8617C26.5024 22.421 26.75 21.8233 26.75 21.2H29.25ZM27.8295 24.6295C26.9199 25.539 25.6863 26.05 24.4 26.05L24.4 23.55C25.0233 23.55 25.621 23.3024 26.0617 22.8617L27.8295 24.6295ZM24.4 26.05C22.6504 26.05 21.7292 25.097 21.1161 24.4839L22.8839 22.7161C23.4708 23.303 23.7496 23.55 24.4 23.55V26.05ZM21.1161 24.4839L19.4193 22.7871L21.1871 21.0193L22.8839 22.7161L21.1161 24.4839ZM19.4192 22.787C19.2036 22.5713 18.9111 22.4501 18.6061 22.45L18.6067 19.95C19.5746 19.9502 20.5029 20.3349 21.1872 21.0195L19.4192 22.787ZM18.6064 22.45H13.3936V19.95H18.6064V22.45ZM13.3939 22.45C13.0889 22.4501 12.7964 22.5713 12.5808 22.787L10.8128 21.0195C11.4971 20.3349 12.4254 19.9502 13.3933 19.95L13.3939 22.45ZM12.5807 22.7871L10.8839 24.4839L9.11612 22.7161L10.8129 21.0193L12.5807 22.7871ZM10.8839 24.4839C10.2708 25.097 9.3496 26.05 7.6 26.05V23.55C8.25039 23.55 8.52925 23.303 9.11612 22.7161L10.8839 24.4839ZM7.6 26.05C6.3137 26.05 5.08008 25.539 4.17053 24.6295L5.9383 22.8617C6.37901 23.3024 6.97674 23.55 7.6 23.55L7.6 26.05ZM4.17053 24.6295C3.26098 23.7199 2.75 22.4863 2.75 21.2L5.25 21.2C5.25 21.8233 5.49759 22.421 5.9383 22.8617L4.17053 24.6295ZM2.75 21.2C2.75 19.2494 3.48999 13.098 3.58093 12.3412L6.06307 12.6395C5.95961 13.5004 5.25 19.4426 5.25 21.2H2.75ZM3.58407 12.3171C3.59171 12.2625 3.58506 12.2983 3.60096 12.1631L6.08384 12.4553C6.0815 12.4751 6.07996 12.4911 6.07588 12.5301C6.07244 12.5631 6.0673 12.6111 6.05993 12.6637L3.58407 12.3171ZM3.59895 12.1814C3.75204 10.692 4.45192 9.31237 5.56327 8.30914L7.23847 10.1649C6.58635 10.7535 6.17568 11.5631 6.08585 12.437L3.59895 12.1814ZM5.56327 8.30914C6.67462 7.30591 8.11849 6.75039 9.61568 6.75L9.61632 9.25C8.73781 9.25023 7.89058 9.57619 7.23847 10.1649L5.56327 8.30914Z" fill="#292929"/>
</svg>
