<svg width="32" height="32" viewBox="0 0 32 32" fill="none" xmlns="http://www.w3.org/2000/svg">
<g clip-path="url(#clip0_6_23)">
<path d="M4 26.6668C4 27.0204 4.14047 27.3595 4.39052 27.6096C4.64057 27.8596 4.97971 28.0001 5.33333 28.0001H26.6667C27.0203 28.0001 27.3594 27.8596 27.6095 27.6096C27.8595 27.3595 28 27.0204 28 26.6668V12.6535C28.0001 12.4503 27.9538 12.2497 27.8646 12.0672C27.7754 11.8846 27.6457 11.7249 27.4853 11.6001L16.8187 3.30412C16.5846 3.12205 16.2965 3.02319 16 3.02319C15.7035 3.02319 15.4154 3.12205 15.1813 3.30412L4.51467 11.6001C4.35429 11.7249 4.22455 11.8846 4.13535 12.0672C4.04615 12.2497 3.99986 12.4503 4 12.6535V26.6668V26.6668ZM6.66667 25.3335V13.3041L16 6.04545L25.3333 13.3041V25.3335H6.66667Z" fill="#292929"/>
</g>
<defs>
<clipPath id="clip0_6_23">
<rect width="32" height="32" fill="white" transform="matrix(-1 0 0 1 32 0)"/>
</clipPath>
</defs>
</svg>
