<svg width="32" height="31" viewBox="0 0 32 31" fill="none" xmlns="http://www.w3.org/2000/svg">
<g clip-path="url(#clip0_6_64)">
<path d="M18.7027 22.6667H17.3334V16H14.6667V22.6667H13.2974C13.1214 21.064 12.3041 19.7414 10.9774 18.2974C10.8267 18.1347 9.86805 17.1414 9.75472 17C8.81301 15.8236 8.22274 14.405 8.0519 12.9077C7.88105 11.4105 8.13658 9.89543 8.78906 8.53703C9.44153 7.17864 10.4644 6.03216 11.7399 5.22962C13.0154 4.42708 14.4916 4.00112 15.9986 4.0008C17.5056 4.00048 18.982 4.4258 20.2578 5.2278C21.5337 6.02979 22.5571 7.17584 23.2101 8.53395C23.8632 9.89207 24.1193 11.407 23.9491 12.9044C23.7789 14.4017 23.1893 15.8205 22.2481 16.9974C22.1334 17.14 21.1721 18.1347 21.0241 18.296C19.6961 19.7414 18.8787 21.064 18.7027 22.6667V22.6667ZM18.6667 25.3334V26.6667H13.3334V25.3334H18.6667ZM24.3281 18.6667C25.5838 17.0978 26.3708 15.206 26.5984 13.2093C26.8259 11.2127 26.4849 9.19233 25.6144 7.38104C24.7439 5.56975 23.3795 4.04121 21.6782 2.97149C19.977 1.90177 18.0082 1.3344 15.9986 1.33472C13.989 1.33504 12.0204 1.90305 10.3195 2.97331C8.61862 4.04358 7.25467 5.57255 6.38478 7.38412C5.51489 9.19568 5.17444 11.2161 5.40266 13.2127C5.63088 15.2093 6.41847 17.1008 7.67472 18.6694C8.50139 19.6987 10.6667 21.3334 10.6667 23.3334V26.6667C10.6667 27.374 10.9477 28.0522 11.4478 28.5523C11.9479 29.0524 12.6261 29.3334 13.3334 29.3334H18.6667C19.374 29.3334 20.0522 29.0524 20.5523 28.5523C21.0524 28.0522 21.3334 27.374 21.3334 26.6667V23.3334C21.3334 21.3334 23.5001 19.6987 24.3281 18.6667Z" fill="#292929"/>
</g>
<defs>
<clipPath id="clip0_6_64">
<rect width="32" height="32" fill="white" transform="matrix(-1 0 0 1 32 -1.33325)"/>
</clipPath>
</defs>
</svg>
