<svg width="32" height="32" viewBox="0 0 32 32" fill="none" xmlns="http://www.w3.org/2000/svg">
<path d="M8.35315 5.07593L9.88251 7.26073C7.13163 9.18992 5.33329 12.3849 5.33329 16C5.33329 21.891 10.1089 26.6666 16 26.6666C21.891 26.6666 26.6666 21.891 26.6666 16C26.6666 12.3849 24.8682 9.18992 22.1174 7.26073L23.6468 5.07593C27.0854 7.48741 29.3333 11.4812 29.3333 16C29.3333 23.3637 23.3637 29.3333 16 29.3333C8.63616 29.3333 2.66663 23.3637 2.66663 16C2.66663 11.4812 4.91455 7.48741 8.35315 5.07593ZM14.6666 16V2.66663H17.3333V16H14.6666Z" fill="#292929"/>
</svg>
