<svg width="32" height="32" viewBox="0 0 32 32" fill="none" xmlns="http://www.w3.org/2000/svg">
<path fill-rule="evenodd" clip-rule="evenodd" d="M27.34 28.34V3.66H4.66V28.34H27.34ZM30 2.5C30 1.67157 29.3284 1 28.5 1H3.5C2.67157 1 2 1.67157 2 2.5V29.5C2 30.3284 2.67157 31 3.5 31H28.5C29.3284 31 30 30.3284 30 29.5V2.5ZM26 27.33H18V24.67H26V27.33ZM6 24.67H14V27.33H6V24.67ZM22 7.33001C22.9223 7.33001 23.67 8.0777 23.67 9.00001C23.67 9.92233 22.9223 10.67 22 10.67C21.0777 10.67 20.33 9.92233 20.33 9.00001C20.33 8.0777 21.0777 7.33001 22 7.33001ZM26.33 9.00001C26.33 6.60862 24.3914 4.67001 22 4.67001C19.6086 4.67001 17.67 6.60862 17.67 9.00001C17.67 11.3914 19.6086 13.33 22 13.33C24.3914 13.33 26.33 11.3914 26.33 9.00001ZM23.67 19C23.67 18.0777 22.9223 17.33 22 17.33C21.0777 17.33 20.33 18.0777 20.33 19C20.33 19.9223 21.0777 20.67 22 20.67C22.9223 20.67 23.67 19.9223 23.67 19ZM22 14.67C24.3914 14.67 26.33 16.6086 26.33 19C26.33 21.3914 24.3914 23.33 22 23.33C19.6086 23.33 17.67 21.3914 17.67 19C17.67 16.6086 19.6086 14.67 22 14.67ZM10 7.33001C10.9223 7.33001 11.67 8.0777 11.67 9.00001C11.67 9.92233 10.9223 10.67 10 10.67C9.07769 10.67 8.33 9.92233 8.33 9.00001C8.33 8.0777 9.07769 7.33001 10 7.33001ZM14.33 9.00001C14.33 6.60862 12.3914 4.67001 10 4.67001C7.60861 4.67001 5.67 6.60862 5.67 9.00001C5.67 11.3914 7.60861 13.33 10 13.33C12.3914 13.33 14.33 11.3914 14.33 9.00001ZM11.67 19C11.67 18.0777 10.9223 17.33 10 17.33C9.07769 17.33 8.33 18.0777 8.33 19C8.33 19.9223 9.07769 20.67 10 20.67C10.9223 20.67 11.67 19.9223 11.67 19ZM10 14.67C12.3914 14.67 14.33 16.6086 14.33 19C14.33 21.3914 12.3914 23.33 10 23.33C7.60861 23.33 5.67 21.3914 5.67 19C5.67 16.6086 7.60861 14.67 10 14.67Z" fill="#292929"/>
</svg>
