<svg width="24" height="24" viewBox="0 0 24 24" fill="none" xmlns="http://www.w3.org/2000/svg">
<path fill-rule="evenodd" clip-rule="evenodd" d="M5.41778 10.3407L6.4306 9.5771L6.17168 8.33541C6.114 8.05878 6.0835 7.77173 6.0835 7.47612C6.0835 5.09635 8.14032 3 10.8889 3C12.757 3 14.3367 3.98678 15.1318 5.3733L15.7282 6.41333L16.9266 6.37747C16.951 6.37674 16.9755 6.37637 17.0001 6.37637C18.2914 6.37637 19.1667 7.34845 19.1667 8.34138C19.1667 8.58893 19.1171 8.82256 19.0265 9.03819L18.5747 10.113L19.2874 11.0357C19.7418 11.6241 20 12.3341 20 13.0971C20 14.966 18.3785 16.6481 16.1668 16.6481C15.0614 16.6481 14.0837 16.2176 13.3934 15.5472L12 14.194L10.6066 15.5472C9.91634 16.2176 8.93861 16.6481 7.83327 16.6481C5.62158 16.6481 4 14.966 4 13.0971C4 12.0096 4.52976 11.0101 5.41778 10.3407ZM10.8889 1C13.4683 1 15.7125 2.36554 16.8668 4.37837C16.911 4.37704 16.9555 4.37637 17.0001 4.37637C19.3013 4.37637 21.1667 6.15157 21.1667 8.34138C21.1667 8.86144 21.0615 9.35812 20.8702 9.81319C21.5805 10.7328 22 11.8683 22 13.0971C22 16.1629 19.3884 18.6481 16.1668 18.6481C14.9993 18.6481 13.912 18.3218 13 17.7597V22C13 22.5523 12.5523 23 12 23C11.4477 23 11 22.5523 11 22V17.7597C10.088 18.3218 9.0007 18.6481 7.83327 18.6481C4.61165 18.6481 2 16.1629 2 13.0971C2 11.3326 2.86514 9.76042 4.21379 8.74367C4.12832 8.33376 4.0835 7.90992 4.0835 7.47612C4.0835 3.89946 7.13039 1 10.8889 1Z" fill="#292929"/>
</svg>
