<svg width="32" height="32" viewBox="0 0 32 32" fill="none" xmlns="http://www.w3.org/2000/svg">
<path fill-rule="evenodd" clip-rule="evenodd" d="M23.34 4.66V25.34H8.66V4.66H23.34ZM24.5 2C25.3284 2 26 2.67157 26 3.5V26.5C26 27.3284 25.3284 28 24.5 28H23.33V30H20.67V28H11.33V30H8.66999V28H7.5C6.67157 28 6 27.3284 6 26.5V3.5C6 2.67157 6.67157 2 7.5 2H24.5ZM18 9.33004H22V6.67004H18V9.33004ZM10 9.33004H16V6.67004H10V9.33004ZM12.9729 19.4134C13.5052 20.5515 14.6605 21.34 16 21.34C16.9033 21.34 17.7228 20.9814 18.324 20.3989C17.4054 20.4768 16.3033 20.3041 15.2213 19.5226C14.6123 19.0828 14.0365 19.0814 13.5613 19.1958C13.3243 19.2528 13.1204 19.3388 12.9729 19.4134ZM19.2986 17.4725C19.0457 15.8785 17.6651 14.66 16 14.66C14.654 14.66 13.4939 15.4562 12.9651 16.6034C13.9879 16.363 15.3996 16.3702 16.7787 17.3662C17.3877 17.806 17.9635 17.8074 18.4387 17.693C18.6862 17.6334 18.8978 17.5423 19.0465 17.4656C19.1195 17.4279 19.1734 17.3958 19.2045 17.3763C19.2199 17.3666 19.2294 17.3603 19.2325 17.3582L19.232 17.3586L19.2279 17.3614L19.2249 17.3636L19.2232 17.3648L19.2223 17.3655C19.222 17.3657 19.2218 17.3658 19.2986 17.4725ZM16 24C12.6863 24 10 21.3137 10 18C10 14.6863 12.6863 12 16 12C19.3137 12 22 14.6863 22 18C22 21.3137 19.3137 24 16 24Z" fill="#292929"/>
</svg>
