<svg width="32" height="32" viewBox="0 0 32 32" fill="none" xmlns="http://www.w3.org/2000/svg">
<path fill-rule="evenodd" clip-rule="evenodd" d="M14.0964 3.93324C15.1758 2.95194 16.8243 2.95194 17.9037 3.93323L27.4037 12.5696C27.9937 13.1059 28.33 13.8663 28.33 14.6636V26.5001C28.33 28.063 27.063 29.3301 25.5 29.3301H6.50004C4.93708 29.3301 3.67004 28.063 3.67004 26.5001V14.6636C3.67004 13.8663 4.0064 13.1059 4.59638 12.5696L14.0964 3.93324ZM16.1144 5.90148C16.0496 5.84253 15.9505 5.84253 15.8857 5.90148L6.38569 14.5378C6.35025 14.5701 6.33004 14.6157 6.33004 14.6636V26.5001C6.33004 26.594 6.40615 26.6701 6.50004 26.6701H25.5C25.5939 26.6701 25.67 26.594 25.67 26.5001V14.6636C25.67 14.6157 25.6498 14.5701 25.6144 14.5378L16.1144 5.90148ZM13.8945 12.9968C14.6401 13.6458 15.1052 14.3798 15.287 15.1709C15.4672 15.9554 15.3393 16.6664 15.1251 17.2257C14.9142 17.7764 14.6087 18.2124 14.3726 18.5C14.2518 18.6473 14.1416 18.7648 14.058 18.8487C14.0161 18.8908 13.9803 18.925 13.9525 18.9508L13.917 18.9834L13.904 18.9949L13.902 18.9967C13.8973 19.0012 13.8859 19.0119 13.8695 19.0283C13.8364 19.0616 13.785 19.116 13.7263 19.1875C13.6033 19.3374 13.478 19.5264 13.4017 19.7257C13.3287 19.9164 13.313 20.0804 13.3481 20.2334C13.3818 20.3798 13.4912 20.6458 13.8945 20.9968L12.1482 23.0033C11.4026 22.3543 10.9375 21.6203 10.7557 20.8292C10.5754 20.0447 10.7034 19.3337 10.9176 18.7744C11.1285 18.2237 11.434 17.7877 11.6701 17.5001C11.7909 17.3528 11.9011 17.2353 11.9846 17.1515C12.0266 17.1093 12.0624 17.0751 12.0901 17.0493L12.1257 17.0167L12.1386 17.0052L12.1406 17.0034C12.1454 16.9989 12.1568 16.9882 12.1731 16.9718C12.2063 16.9385 12.2577 16.8841 12.3164 16.8126C12.4393 16.6627 12.5647 16.4737 12.641 16.2744C12.714 16.0837 12.7297 15.9197 12.6945 15.7667C12.6609 15.6203 12.5515 15.3543 12.1482 15.0033L13.8945 12.9968ZM13.8955 19.0024C13.895 19.0028 13.8923 19.0008 13.0213 18.0001C13.8945 19.0033 13.895 19.0029 13.8955 19.0025L13.8955 19.0024ZM19.852 12.9968C20.5975 13.6458 21.0626 14.3798 21.2444 15.1709C21.4247 15.9554 21.2967 16.6664 21.0825 17.2257C20.8716 17.7764 20.5661 18.2124 20.33 18.5C20.2092 18.6473 20.099 18.7648 20.0155 18.8487C19.9735 18.8908 19.9377 18.925 19.91 18.9508L19.8744 18.9834L19.8615 18.9949L19.8595 18.9967C19.8547 19.0012 19.8434 19.0119 19.827 19.0283C19.7938 19.0616 19.7424 19.116 19.6838 19.1875C19.5608 19.3374 19.4355 19.5264 19.3591 19.7257C19.2861 19.9164 19.2704 20.0804 19.3056 20.2334C19.3392 20.3798 19.4486 20.6458 19.852 20.9968L18.1056 23.0033C17.36 22.3543 16.8949 21.6203 16.7132 20.8292C16.5329 20.0447 16.6608 19.3337 16.8751 18.7744C17.0859 18.2237 17.3915 17.7877 17.6275 17.5001C17.7484 17.3528 17.8586 17.2353 17.9421 17.1515C17.984 17.1093 18.0198 17.0751 18.0476 17.0493L18.0831 17.0167L18.0961 17.0052L18.0981 17.0034C18.1029 16.9989 18.1142 16.9882 18.1306 16.9718C18.1637 16.9385 18.2151 16.8841 18.2738 16.8126C18.3968 16.6627 18.5221 16.4737 18.5985 16.2744C18.6715 16.0837 18.6872 15.9197 18.652 15.7667C18.6184 15.6203 18.509 15.3543 18.1056 15.0033L19.852 12.9968ZM19.853 19.0024C19.8525 19.0028 19.852 19.0033 18.9788 18.0001L18.982 18.0037C19.852 19.0033 19.8524 19.0029 19.8529 19.0025L19.853 19.0024ZM18.8617 17.8655C18.1056 16.9969 18.1051 16.9973 18.1047 16.9977L18.1046 16.9977C18.1051 16.9973 18.1056 16.9969 18.8617 17.8655Z" fill="#292929"/>
</svg>
